<?xml version="1.0" encoding="utf-8"?>
<svg viewBox="0 0 266 62.132" xmlns="http://www.w3.org/2000/svg">
  <defs>
    <clipPath id="a">
      <rect width="266" height="62.132" transform="translate(0 0)" fill="#fff"/>
    </clipPath>
  </defs>
  <g>
    <g transform="translate(0 0)" clip-path="url(#a)">
      <path d="M44.473,23.628V0H33.14V10.751H29.115V5.375H17.783v5.375H13.757V0H2.425V23.628C-4.642,40.707,5.213,47.59,13.159,53.139c4.034,2.817,7.845,5.478,8.779,8.986l3.02.007c.95-3.507,4.758-6.166,8.788-8.981,7.946-5.549,17.8-12.432,10.727-29.524M42.88,28.513,25.261,46.132V40.455l15.3-15.3H41.72a33.2,33.2,0,0,1,1.16,3.358M25.261,35.287V25.155H35.394ZM21.608,55.82a47.4,47.4,0,0,0-6.659-5.245c-3.931-2.745-8-5.584-10.178-9.615A14.18,14.18,0,0,1,3.2,32.891L21.608,51.3Zm0-9.688-17.6-17.6a33.017,33.017,0,0,1,1.165-3.382H6.309l15.3,15.3Zm0-10.846L11.476,25.155H21.608ZM6.078,21.5V3.654H10.1V14.4H21.436V9.029h4.026V14.4H36.794V3.654h4.026V21.5Zm36.056,19.47C39.955,45,35.889,47.842,31.956,50.588a47.121,47.121,0,0,0-6.695,5.28V51.3L43.7,32.862a14.2,14.2,0,0,1-1.565,8.109" transform="translate(0 0)" fill="#f0b500"/>
      <path d="M108.757,46.413q4.485,0,4.484-3.587a2.925,2.925,0,0,0-1.98-2.765,14.778,14.778,0,0,0-2.71-.972,21.613,21.613,0,0,1-2.765-.916,11.075,11.075,0,0,1-2.223-1.289,5.9,5.9,0,0,1-2.2-5.063,6.605,6.605,0,0,1,2.373-5.381,9.413,9.413,0,0,1,6.2-1.962,16.656,16.656,0,0,1,7.119,1.532v5.6l-3.812.262V29.711a1.727,1.727,0,0,0-.149-.822q-.412-.709-2.634-.71a5.563,5.563,0,0,0-3.288.785,2.818,2.818,0,0,0-1.065,2.429,2.867,2.867,0,0,0,.9,2.092,4.472,4.472,0,0,0,1.775.991q1.177.393,2.5.8a18.21,18.21,0,0,1,2.354.9,12.02,12.02,0,0,1,2.149,1.345,6.031,6.031,0,0,1,2.279,5.194,6.7,6.7,0,0,1-2.522,5.53,10.331,10.331,0,0,1-6.651,2.018,17.353,17.353,0,0,1-7.417-1.532v-5.9l3.811-.261v2.279a1.718,1.718,0,0,0,.149.822,1.671,1.671,0,0,0,.916.5,8.657,8.657,0,0,0,2.41.243" transform="translate(-38.871 -9.388)" style="fill: rgb(9, 37, 55);"/>
      <path d="M135.467,28.6H137.9v3.961h4.97l-.374,3.139h-4.6v9.826a3.417,3.417,0,0,0,.6,2.3,2.39,2.39,0,0,0,1.85.653,4.777,4.777,0,0,0,2.522-.784l1.121,2.877a8.092,8.092,0,0,1-4.745,1.308,8.233,8.233,0,0,1-2.84-.43,5.166,5.166,0,0,1-1.719-.953,3.339,3.339,0,0,1-.859-1.533,7.7,7.7,0,0,1-.337-1.588q-.038-.579-.037-1.7V35.7H130.8l.374-2.728a3.643,3.643,0,0,0,2.653-1.252,11.08,11.08,0,0,0,1.644-3.121" transform="translate(-50.16 -10.968)" style="fill: rgb(9, 37, 55);"/>
      <path d="M162.766,34.116a6.756,6.756,0,0,1,4.447,1.364,4.7,4.7,0,0,1,1.644,3.83,5.795,5.795,0,0,1-2.467,4.857,9.19,9.19,0,0,1-2.541,1.158,19.693,19.693,0,0,1-5.643.747,4.959,4.959,0,0,0,1.234,3.2,4.459,4.459,0,0,0,3.437,1.214,7.968,7.968,0,0,0,4.634-1.644l1.42,3.026a8.817,8.817,0,0,1-2.523,1.383,10.867,10.867,0,0,1-4.053.71q-4.56,0-6.689-2.522a10.411,10.411,0,0,1-2.129-6.931,11.351,11.351,0,0,1,2.429-7.4,8.272,8.272,0,0,1,6.8-2.989m-1.7,8.539a6.062,6.062,0,0,0,2.523-1.084,2.435,2.435,0,0,0,1.158-2,2,2,0,0,0-2.242-2.279,3.644,3.644,0,0,0-3.214,1.662,7.635,7.635,0,0,0-1.233,3.98,19.735,19.735,0,0,0,3.008-.28" transform="translate(-58.881 -13.083)" style="fill: rgb(9, 37, 55);"/>
      <path d="M191.105,34.116a6.756,6.756,0,0,1,4.447,1.364,4.7,4.7,0,0,1,1.644,3.83,5.8,5.8,0,0,1-2.467,4.857,9.19,9.19,0,0,1-2.541,1.158,19.693,19.693,0,0,1-5.643.747,4.959,4.959,0,0,0,1.234,3.2,4.459,4.459,0,0,0,3.437,1.214,7.968,7.968,0,0,0,4.634-1.644l1.42,3.026a8.817,8.817,0,0,1-2.523,1.383,10.867,10.867,0,0,1-4.054.71q-4.56,0-6.689-2.522a10.411,10.411,0,0,1-2.129-6.931,11.351,11.351,0,0,1,2.429-7.4,8.272,8.272,0,0,1,6.8-2.989m-1.7,8.539a6.062,6.062,0,0,0,2.523-1.084,2.435,2.435,0,0,0,1.158-2,2,2,0,0,0-2.242-2.279,3.644,3.644,0,0,0-3.214,1.662,7.635,7.635,0,0,0-1.233,3.98,19.735,19.735,0,0,0,3.008-.28" transform="translate(-69.749 -13.083)" style="fill: rgb(9, 37, 55);"/>
      <path d="M210.222,37.667V34.677h6.315v2.429a6.813,6.813,0,0,1,2.579-2.186,7.654,7.654,0,0,1,3.475-.8,5.782,5.782,0,0,1,4.391,1.626,6.827,6.827,0,0,1,1.55,4.876v9.752l2.13.112v2.989h-8.892v-2.84L223,50.521a1.469,1.469,0,0,0,.822-.318,1.237,1.237,0,0,0,.261-.915v-7.7a5.751,5.751,0,0,0-.635-3.045,2.648,2.648,0,0,0-2.41-.991,3.673,3.673,0,0,0-2.821,1.121,3.756,3.756,0,0,0-1.047,2.652v9.043l2.131.112v2.989h-8.893v-2.84l1.233-.112a1.471,1.471,0,0,0,.822-.318,1.236,1.236,0,0,0,.262-.915V38.937q0-1.121-.935-1.158Z" transform="translate(-80.619 -13.084)" style="fill: rgb(9, 37, 55);"/>
      <path d="M255.253,34.116A6.756,6.756,0,0,1,259.7,35.48a4.7,4.7,0,0,1,1.644,3.83,5.788,5.788,0,0,1-2.466,4.857,9.189,9.189,0,0,1-2.541,1.158,19.693,19.693,0,0,1-5.643.747,4.959,4.959,0,0,0,1.234,3.2,4.459,4.459,0,0,0,3.437,1.214A7.967,7.967,0,0,0,260,48.838l1.42,3.026a8.806,8.806,0,0,1-2.521,1.383,10.87,10.87,0,0,1-4.054.71q-4.56,0-6.689-2.522a10.411,10.411,0,0,1-2.129-6.931,11.351,11.351,0,0,1,2.429-7.4,8.272,8.272,0,0,1,6.8-2.989m-1.7,8.539a6.065,6.065,0,0,0,2.523-1.084,2.435,2.435,0,0,0,1.158-2,2,2,0,0,0-2.242-2.279,3.644,3.644,0,0,0-3.214,1.662,7.635,7.635,0,0,0-1.233,3.98,19.735,19.735,0,0,0,3.008-.28" transform="translate(-94.349 -13.083)" style="fill: rgb(9, 37, 55);"/>
      <path d="M274.371,37.667V34.677h6.314v2.429a6.813,6.813,0,0,1,2.579-2.186,7.655,7.655,0,0,1,3.475-.8,5.78,5.78,0,0,1,4.39,1.626,6.824,6.824,0,0,1,1.551,4.876v9.752l2.129.112v2.989h-8.892v-2.84l1.233-.112a1.473,1.473,0,0,0,.822-.318,1.237,1.237,0,0,0,.261-.915v-7.7a5.751,5.751,0,0,0-.635-3.045,2.648,2.648,0,0,0-2.41-.991,3.673,3.673,0,0,0-2.821,1.121,3.756,3.756,0,0,0-1.047,2.652v9.043l2.131.112v2.989h-8.893v-2.84l1.233-.112a1.472,1.472,0,0,0,.822-.318,1.239,1.239,0,0,0,.261-.915V38.937q0-1.121-.935-1.158Z" transform="translate(-105.22 -13.084)" style="fill: rgb(9, 37, 55);"/>
      <path d="M310.783,47.819V26.371q0-.86-.935-.9l-1.308-.075V22.3h6.576v8.855a6.361,6.361,0,0,1,4.521-1.569,6.987,6.987,0,0,1,5.567,2.372,9.874,9.874,0,0,1,2.055,6.671q0,10.8-9.043,10.8a19.268,19.268,0,0,1-4.09-.467,12.323,12.323,0,0,1-3.345-1.139m4.334-12.106V45.39a6.951,6.951,0,0,0,3.288.747q4.259,0,4.259-6.912,0-6.314-4.185-6.315a3.722,3.722,0,0,0-2.354.785,2.444,2.444,0,0,0-1.009,2.018" transform="translate(-118.324 -8.551)" style="fill: rgb(9, 37, 55);"/>
      <path d="M361.673,50.869v2.952h-6.053V51.392a6.933,6.933,0,0,1-6.053,2.914q-5.792,0-5.791-6.464V39.211q0-1.009-.934-1.046l-1.2-.076V35.026h6.576V46.871a6.3,6.3,0,0,0,.56,2.989,2.413,2.413,0,0,0,2.317,1.009,3.774,3.774,0,0,0,2.82-1.084,3.592,3.592,0,0,0,1.065-2.615V39.285a1.319,1.319,0,0,0-.205-.84,1.013,1.013,0,0,0-.728-.28l-1.2-.076V35.026h6.576V49.674a.859.859,0,0,0,.934,1.083Z" transform="translate(-131.019 -13.432)" style="fill: rgb(9, 37, 55);"/>
      <path d="M380.029,49.287V38.937a1.323,1.323,0,0,0-.205-.84,1.019,1.019,0,0,0-.73-.28l-1.568-.113V34.677h6.314v2.8a5.8,5.8,0,0,1,2.092-2.411,5.733,5.733,0,0,1,3.27-.952,7.943,7.943,0,0,1,3.531.822v5.567l-3.475.262V39.05c0-.5-.125-.809-.374-.935a2.43,2.43,0,0,0-1.008-.187,3.133,3.133,0,0,0-2.448,1.065,3.913,3.913,0,0,0-.953,2.709v8.669l3.25.149v2.952H377.711v-2.84l1.233-.112a1.465,1.465,0,0,0,.822-.318,1.235,1.235,0,0,0,.262-.915" transform="translate(-144.779 -13.084)" style="fill: rgb(9, 37, 55);"/>
      <path d="M418.656,59.526q-2.055,1.942-6.427,1.943a15.526,15.526,0,0,1-6.837-1.234V55.042l3.549-.3v1.793a1.341,1.341,0,0,0,.934,1.364,7.488,7.488,0,0,0,2.579.355,3.76,3.76,0,0,0,3.362-1.438,7.2,7.2,0,0,0,.972-4.054V50.707a6.194,6.194,0,0,1-4.97,2.092,7.468,7.468,0,0,1-3.419-.747,5.773,5.773,0,0,1-2.3-2.018,10.943,10.943,0,0,1-1.607-5.978q0-4.895,2.653-7.417a9.823,9.823,0,0,1,7.062-2.523,17.476,17.476,0,0,1,6.912,1.383V49.362q0,3.177-.075,4.073-.336,4.148-2.391,6.09M416.788,45.85V37.817a9.18,9.18,0,0,0-2.989-.449A4.046,4.046,0,0,0,410.3,39.05a7.638,7.638,0,0,0-1.214,4.558q0,5.9,3.886,5.9a3.908,3.908,0,0,0,2.709-.989,3.414,3.414,0,0,0,1.1-2.672" transform="translate(-155.122 -13.084)" style="fill: rgb(9, 37, 55);"/>
    </g>
  </g>
</svg>